<?xml version="1.0"?>
<svg xmlns="http://www.w3.org/2000/svg" xmlns:xlink="http://www.w3.org/1999/xlink" version="1.1" id="Capa_1" x="0px" y="0px" viewBox="0 0 512.002 512.002" style="enable-background:new 0 0 512.002 512.002;" xml:space="preserve" width="512px" height="512px" class=""><g><link xmlns="" type="text/css" rel="stylesheet" id="dark-mode-general-link" class="active-path"/><link xmlns="" type="text/css" rel="stylesheet" id="dark-mode-custom-link" class="active-path"/><style xmlns="" type="text/css" id="dark-mode-custom-style" class="active-path"/><g>
	<g>
		<path d="M355.692,114.89c8.27-3.966,18.241-3.515,27.336,1.18c5.285,2.734,20.385,8.201,50.992,5.45    c-9.051-27.119-24.984-51.044-45.698-69.858c-5.762,4.157-9.485,8.14-11.472,10.769c-4.165,5.554-8.227,9.459-12.783,12.288    c-7.159,4.469-14.067,6.187-20.376,6.187c-13.112,0-23.673-7.42-28.611-13.086l-1.163-1.71    c-10.44-20.133,6.014-38.305,17.486-48.267c-16.861-5.84-34.885-9.164-53.708-9.164c-11.828,0-23.344,1.31-34.469,3.688    c8.192,16.15,18.909,41.836,13.685,57.422c-4.487,13.373-22.085,38.183-56.815,36.421c-6.873-0.365-13.425,0.2-19.508,1.64    c-1.796,0.417-3.237,0.842-4.382,1.224c4.643,2.951,15.204,8.14,38.903,15.499c0.295,0.061,18.753,4.842,29.705,24.784    c7.368,13.407,24.151,18.883,38.209,12.47v-0.009c5.467-2.491,11.646-2.23,16.965,0.712c5.337,2.951,8.99,8.287,9.78,14.284    c1.762,13.277,0.503,38.296-27.761,56.658c-7.211,4.686-13,11.064-16.714,18.441c-6.578,13.043-19.734,21.166-34.382,21.287    c-0.573,0.043-1.397,0.078-2.43,0.078c-10.292,0-41.437-3.922-51.955-49.985c-1.762-7.706-2.603-15.898-2.56-25.053    c0.035-8.973-1.137-31.119-12.826-42.852c-5.207-5.224-11.932-7.793-20.558-7.862c-2.595,0.208-12.939,0.564-24.94-3.818    c-1.77,9.693-2.829,19.647-2.829,29.852c0,71.211,45.464,131.836,108.813,154.858c3.532-27.379,27.31-48.631,56.068-48.631    c20.124,0,36.977,13.998,40.075,33.297c1.102,6.873,2.951,13.06,5.146,18.901c25.678-7.342,48.753-20.749,67.679-38.591    c-12.409-15.022-16.193-35.207-10.726-59.158c2.135-9.364-2.491-18.987-11.255-23.404c-28.264-14.258-32.803-39.919-32.976-41.003    C331.689,134.111,344.376,120.279,355.692,114.89z" data-original="#000000" class="active-path" fill="#FFFFFF"/>
	</g>
</g><g>
	<g>
		<path d="M292.569,179.098c-0.104-0.816-0.72-1.241-0.989-1.38c-0.469-0.26-0.92-0.286-1.345-0.113    c-22.285,10.223-48.918,1.449-60.633-19.89c-7.177-13.078-18.753-16.323-19.239-16.453c-46.002-14.275-54.94-23.431-54.584-33.61    c0.417-11.889,15.777-15.508,20.827-16.696c7.671-1.814,15.889-2.482,24.376-2.083c30.373,1.927,39.381-24.35,39.476-24.611    c2.682-8.001-4.504-28.16-13.746-46.063c-51.105,16.766-91.188,57.535-106.8,108.605c10.266,4.252,19.291,3.463,19.387,3.419    l0.469-0.052h0.477c13.46,0,24.628,4.365,33.202,12.974c15.69,15.75,17.937,41.333,17.885,55.166    c-0.035,7.81,0.66,14.718,2.126,21.122c9.095,39.841,34.842,36.673,35.927,36.5l1.224-0.087c8.183,0,15.542-4.504,19.196-11.75    c5.094-10.11,12.965-18.814,22.754-25.175C288.013,208.881,294.747,195.482,292.569,179.098z" data-original="#000000" class="active-path" fill="#FFFFFF"/>
	</g>
</g><g>
	<g>
		<path d="M438.689,138.572c-35.935,3.749-55.14-2.69-63.627-7.09c-2.473-1.267-4.981-1.927-7.298-1.927    c-1.649,0-3.211,0.33-4.591,0.989c-11.316,5.389-11.871,23.049-10.344,36.916c0.061,0.2,3.471,17.712,23.604,27.874    c15.898,8.018,24.272,25.6,20.358,42.765c-4.027,17.66-2.005,31.944,5.918,42.67c24.698-28.75,39.736-66.005,39.849-106.765    C442.533,162.098,441.249,150.218,438.689,138.572z" data-original="#000000" class="active-path" fill="#FFFFFF"/>
	</g>
</g><g>
	<g>
		<path d="M300.622,315.759c-1.727-10.761-11.585-18.883-22.927-18.883c-20.957,0-38.088,16.297-39.112,36.682    c12.566,3.081,25.617,4.886,39.112,4.886c9.546,0,18.849-0.989,27.96-2.56C303.468,329.6,301.768,322.883,300.622,315.759z" data-original="#000000" class="active-path" fill="#FFFFFF"/>
	</g>
</g><g>
	<g>
		<path d="M348.837,26.01c-23.24,18.241-21.651,27.327-20.003,31.093c2.786,2.734,12.939,11.056,26.06,2.89    c2.681-1.666,5.242-4.2,8.088-7.984c2.152-2.855,5.623-6.812,10.917-11.151C366.011,35.191,357.628,30.219,348.837,26.01z" data-original="#000000" class="active-path" fill="#FFFFFF"/>
	</g>
</g><g>
	<g>
		<path d="M466.068,340.986l-34.712-34.712c-3.384-3.393-8.886-3.393-12.271,0c-3.393,3.393-3.393,8.878,0,12.271l10.752,10.752    c-36.204,31.058-75.75,61.214-152.142,61.214c-119.626,0-216.949-97.323-216.949-216.949c0-51.556,15.36-97.757,44.171-134.474    l10.44,10.44c1.692,1.692,3.914,2.543,6.135,2.543s4.443-0.85,6.135-2.543c3.393-3.393,3.393-8.878,0-12.271L92.915,2.545    c-3.384-3.393-8.886-3.393-12.271,0c-3.393,3.393-3.393,8.878,0,12.271l11.924,11.924C60.485,66.805,43.39,117.294,43.39,173.561    c0,126.065,100.092,229.142,224.968,234.071c-4.131,29.496-29.462,52.302-60.086,52.302h-8.678c-4.79,0-8.678,3.879-8.678,8.678    v34.712c0,4.799,3.888,8.678,8.678,8.678h156.203c4.79,0,8.678-3.879,8.678-8.678v-34.712c0-4.799-3.888-8.678-8.678-8.678h-8.678    c-30.625,0-55.964-22.806-60.086-52.311c77.243-2.386,117.734-33.87,155.11-66.022l11.663,11.663    c1.683,1.684,3.905,2.534,6.127,2.534s4.443-0.85,6.135-2.543C469.461,349.863,469.461,344.379,466.068,340.986z M298.079,459.934    H257.31c8.409-6.795,15.377-15.308,20.385-24.984C282.702,444.626,289.671,453.139,298.079,459.934z" data-original="#000000" class="active-path" fill="#FFFFFF"/>
	</g>
</g></g> </svg>
