<?xml version="1.0"?>
<svg xmlns="http://www.w3.org/2000/svg" id="Capa_1" enable-background="new 0 0 448.942 448.942" height="512px" viewBox="0 0 448.942 448.942" width="512px" class=""><g><link xmlns="" type="text/css" rel="stylesheet" id="dark-mode-general-link" class="active-path" style=""/><link xmlns="" type="text/css" rel="stylesheet" id="dark-mode-custom-link" class="active-path"/><style xmlns="" type="text/css" id="dark-mode-custom-style" class="active-path"/><path d="m376.388 353.142c21.915 21.915 21.915 57.447 0 79.362s-57.447 21.915-79.362 0-21.915-57.447 0-79.362 57.447-21.915 79.362 0" data-original="#000000" class="active-path" fill="#FFFFFF"/><path d="m208.035 353.142c21.915 21.915 21.915 57.447 0 79.362s-57.447 21.915-79.362 0-21.915-57.447 0-79.362 57.447-21.915 79.362 0" data-original="#000000" class="active-path" fill="#FFFFFF"/><path d="m443.283 67.284c-5.302-7.028-13.591-11.166-22.4-11.166h-84.176v56.118h46.979l-40.089 140.294h-207.591l-38.184-229.087c-2.247-13.523-13.961-23.442-27.675-23.442h-70.147v56.118h46.376l38.184 229.087c2.247 13.522 13.961 23.442 27.675 23.442h252.529c12.522 0 23.538-8.303 26.976-20.345l56.118-196.412c2.426-8.467.727-17.578-4.575-24.607z" data-original="#000000" class="active-path" fill="#FFFFFF"/><path d="m196.413 168.354h56.118v-56.118h56.118v-56.118h-56.118v-56.117h-56.118v56.118h-56.118v56.118h56.118z" data-original="#000000" class="active-path" fill="#FFFFFF"/></g> </svg>
